<?xml version="1.0" encoding="UTF-8"?>
<svg version="1.1" xmlns="http://www.w3.org/2000/svg" width="480" height="480">
<path d="M0 0 C158.4 0 316.8 0 480 0 C480 158.4 480 316.8 480 480 C321.6 480 163.2 480 0 480 C0 321.6 0 163.2 0 0 Z " fill="#FEFEFE" transform="translate(0,0)"/>
<path d="M0 0 C3.08164552 2.91945365 4.72685531 5.96837516 6 10 C6 10.99 6 11.98 6 13 C5.10023438 13.21914062 4.20046875 13.43828125 3.2734375 13.6640625 C-1.15728302 14.75164034 -5.57971577 15.87081752 -10 17 C-11.29236572 17.32943604 -11.29236572 17.32943604 -12.61083984 17.66552734 C-50.56642654 26.37772036 -50.56642654 26.37772036 -81 48 C-81.42379221 51.88476191 -81.61457992 54.10176781 -79.375 57.375 C-76.46901311 59.36330682 -74.50076386 59.72670617 -71 60 C-68.52703593 59.12024351 -68.52703593 59.12024351 -66.1875 57.5625 C-40.9309296 42.85786602 -11.91060626 33.89769371 17 30 C17.7636084 29.89703613 18.5272168 29.79407227 19.31396484 29.68798828 C67.9912901 23.46193314 124.35701172 30.02904813 166.90258789 56.16894531 C170.60810537 58.41323903 173.65144983 59.73626565 178 60 C182.3105786 58.43616066 182.3105786 58.43616066 185 55 C185.50070321 51.62642666 185.50070321 51.62642666 185 48 C181.54116325 43.90400911 177.52614072 41.24409494 172.875 38.6875 C172.18124268 38.30360107 171.48748535 37.91970215 170.77270508 37.52416992 C149.20992531 25.86997235 126.12502237 19.73863931 102.31225586 14.5690918 C100 14 100 14 98 13 C98.4759693 8.00232235 99.87426342 4.92949742 103 1 C111.08375762 -4.44553446 126.60008536 0.97405314 135.55126953 2.71777344 C163.63702056 8.45117327 199.75114419 18.52490402 218.00390625 42.6484375 C220.18785314 46.01039211 222.13774127 49.45374862 224 53 C224.61246582 54.16329834 224.61246582 54.16329834 225.23730469 55.35009766 C254.86203019 112.56820167 271.178491 183.31156215 272.5 247.625 C272.55414063 248.76195312 272.60828125 249.89890625 272.6640625 251.0703125 C272.80594405 259.90750595 270.42292978 265.10460939 265 272 C264.24074219 272.97195313 263.48148437 273.94390625 262.69921875 274.9453125 C234.77431906 305.20180576 193.76497106 321.59019593 153 325 C151.49759766 325.14501953 151.49759766 325.14501953 149.96484375 325.29296875 C145.48785858 324.85057891 142.62775369 322.8772457 139.6875 319.48632812 C138.3980302 317.77576584 137.19039048 316.03082225 136 314.25 C135.13895351 312.99805594 134.276978 311.74675031 133.4140625 310.49609375 C133.00317383 309.89522949 132.59228516 309.29436523 132.16894531 308.67529297 C130.21627846 305.87679674 128.096257 303.21108262 125.9609375 300.55078125 C125 299 125 299 125 296 C126.05405029 295.66959717 126.05405029 295.66959717 127.12939453 295.33251953 C166.1604598 283.80969411 166.1604598 283.80969411 198.5 260.1875 C199.30355568 256.67194389 199.00480307 253.45446895 198 250 C195.78477803 247.37455174 194.572857 247.04971073 191.1640625 246.75390625 C187.53749918 247.03597229 186.0223886 247.87539751 183.0625 249.9375 C182.10214844 250.57816406 181.14179688 251.21882812 180.15234375 251.87890625 C179.11207031 252.57886719 178.07179688 253.27882813 177 254 C153.58189405 269.2342106 127.28717341 277.73531604 100 283 C98.74243896 283.24991699 98.74243896 283.24991699 97.45947266 283.50488281 C68.05700222 289.04688992 33.32830953 288.89508479 4 283 C2.43813965 282.69400879 2.43813965 282.69400879 0.84472656 282.38183594 C-27.23624386 276.73605699 -53.59250177 267.3355245 -77.32788086 251.13232422 C-81.77769398 248.11900355 -84.48996099 246.29659076 -90 247 C-92.44202118 247.85217329 -92.44202118 247.85217329 -94 250 C-95.00188647 253.44444182 -95.47285095 256.54441667 -94.3515625 259.99609375 C-80.99280669 279.80257274 -42.42141531 289.93432353 -21 296 C-21.62007111 299.32117725 -22.81189139 301.43823711 -24.80078125 304.15234375 C-25.64866211 305.31733398 -25.64866211 305.31733398 -26.51367188 306.50585938 C-27.10728516 307.30830078 -27.70089844 308.11074219 -28.3125 308.9375 C-28.89451172 309.73607422 -29.47652344 310.53464844 -30.07617188 311.35742188 C-31.70373304 313.58218555 -33.34872581 315.79280923 -35 318 C-35.71542969 318.97066406 -36.43085938 319.94132812 -37.16796875 320.94140625 C-39.1005391 323.1129725 -40.24088786 324.1205016 -43 325 C-80.64733205 327.00306405 -124.06762744 306.81144266 -151.77734375 282.5703125 C-154.345197 280.15676784 -156.67923319 277.65119424 -159 275 C-159.86238281 274.07960938 -160.72476563 273.15921875 -161.61328125 272.2109375 C-172.16876911 259.68232967 -168.76574642 242.79324391 -167.48078918 227.60987854 C-162.45743084 171.02627807 -151.47543953 73.13002936 -106 34 C-81.09008681 15.0407883 -32.041995 -7.60318525 0 0 Z " fill="#00FE91" transform="translate(188,78)"/>
<path d="M0 0 C8.85732465 6.57327691 14.52789653 15.43586821 16.35546875 26.37109375 C17.55133747 39.89474492 14.95230003 50.76488263 6.35546875 61.37109375 C0.05494008 68.30631941 -7.71842373 71.50656178 -17.01953125 71.99609375 C-25.7233162 71.69844073 -33.06578653 68.00634397 -39.51953125 62.24609375 C-48.96511371 51.89762473 -50.37200128 39.88431887 -49.81933594 26.5546875 C-49.04405037 16.87011468 -43.67418117 9.06201215 -36.73046875 2.5859375 C-25.91443483 -6.18323742 -11.96204982 -7.36805728 0 0 Z " fill="#FDFDFD" transform="translate(194.64453125,225.62890625)"/>
<path d="M0 0 C4.89392518 4.12975746 8.65087185 8.48326345 11.4765625 14.234375 C11.79496094 14.85183594 12.11335938 15.46929687 12.44140625 16.10546875 C16.31288398 25.25785619 15.96031055 38.04613815 12.8515625 47.359375 C8.76929044 56.71279134 2.12886733 64.33548031 -7.2109375 68.609375 C-15.56613208 71.62688078 -24.08455302 71.34920112 -32.1484375 67.6015625 C-41.85876766 62.01173428 -46.44359524 54.39755347 -50.5234375 44.234375 C-53.67346921 32.47669851 -51.61275755 20.64449566 -45.9609375 10.109375 C-40.98473101 2.3071747 -34.00532856 -3.2059804 -24.953125 -5.36328125 C-15.82100912 -6.87551266 -7.70882894 -5.39379362 0 0 Z " fill="#FDFDFD" transform="translate(320.5234375,226.765625)"/>
</svg>
