<?xml version="1.0" encoding="UTF-8"?>
<svg version="1.1" xmlns="http://www.w3.org/2000/svg" width="2048" height="2048">
<path d="M0 0 C1.03491262 -0.00282738 2.06982525 -0.00565475 3.13609886 -0.00856781 C8.63866798 -0.02347928 14.14121155 -0.03275327 19.64379883 -0.03710938 C24.09082455 -0.04144723 28.53765112 -0.0551663 32.98461914 -0.078125 C62.48342113 -0.22720021 91.68668771 0.5684577 121.07421875 3.203125 C122.27867645 3.31025818 123.48313416 3.41739136 124.72409058 3.527771 C130.9569237 4.09877274 137.17278401 4.76819509 143.38671875 5.515625 C144.71387405 5.67094696 144.71387405 5.67094696 146.06784058 5.82940674 C175.08899083 9.23381766 203.74219184 14.13979274 232.34979248 20.04832458 C237.11656029 21.02577161 241.89342417 21.8940303 246.69091797 22.70458984 C273.48819372 27.24969284 299.49748627 35.23987782 325.43759155 43.19075012 C330.11307777 44.61977005 334.79916796 45.99460478 339.50390625 47.32421875 C361.70701962 53.61707976 383.05184295 61.97085835 404.43617249 70.5725708 C408.65867836 72.26393638 412.89732296 73.8914163 417.16845703 75.45568848 C425.65870636 78.5663673 433.89193101 82.12231233 442.10571289 85.8996582 C444.29607499 86.90641619 446.49048969 87.90391667 448.68554688 88.90039062 C450.10050137 89.54634746 451.51522403 90.19281242 452.9296875 90.83984375 C453.89844063 91.28054451 453.89844063 91.28054451 454.88676453 91.73014832 C458.42500896 93.36200209 461.75107508 95.1740884 465.07421875 97.203125 C466.8531327 97.88329798 468.64668056 98.52578663 470.44921875 99.140625 C484.89884304 104.56539863 498.44942894 112.58547648 511.75390625 120.34375 C515.48788438 122.43477775 519.29255156 124.32556142 523.13671875 126.203125 C530.41014332 129.76868233 537.22403336 133.87797822 544.07421875 138.203125 C546.60737036 139.75904062 549.1513197 141.29649934 551.69921875 142.828125 C552.33609619 143.21162109 552.97297363 143.59511719 553.62915039 143.99023438 C557.22869056 146.14354318 560.86198092 148.1853662 564.57421875 150.140625 C570.38352793 153.256136 575.77430074 156.92238103 581.2265625 160.61328125 C585.98182195 163.830393 590.81918446 166.91402772 595.66015625 170 C602.75642702 174.5572673 609.69433445 179.30143544 616.51171875 184.265625 C618.08715179 185.40897515 619.66267528 186.55220067 621.23828125 187.6953125 C622.0365332 188.27506836 622.83478516 188.85482422 623.65722656 189.45214844 C626.02852418 191.17002183 628.40563765 192.87947422 630.78515625 194.5859375 C653.43624993 210.84036041 653.43624993 210.84036041 663.39453125 219.765625 C665.19565353 221.3650406 665.19565353 221.3650406 667.88671875 223.078125 C676.37850375 228.739315 683.85223408 235.72858833 691.25 242.72265625 C694.05608519 245.18719857 696.9497372 247.16614707 700.07421875 249.203125 C701.5584076 250.37955563 703.02019952 251.58526153 704.44921875 252.828125 C705.13757812 253.41851562 705.8259375 254.00890625 706.53515625 254.6171875 C708.07421875 256.203125 708.07421875 256.203125 708.07421875 258.203125 C708.615625 258.42613281 709.15703125 258.64914062 709.71484375 258.87890625 C712.82358789 260.62371463 715.25383963 262.95535555 717.82421875 265.390625 C718.81803469 266.32265609 719.81284578 267.25362706 720.80859375 268.18359375 C721.329375 268.67069824 721.85015625 269.15780273 722.38671875 269.65966797 C724.20493745 271.32268571 726.06541148 272.92853789 727.93359375 274.53515625 C733.12719385 279.05571828 737.89704955 283.97719134 742.71875 288.88671875 C746.76411688 292.97645895 750.88295139 296.87653417 755.28125 300.58618164 C757.85742671 302.90944122 760.04363347 305.51555194 762.28515625 308.15625 C766.1297137 312.55482665 770.39383742 316.5647532 774.57421875 320.640625 C780.14440643 326.35006738 785.30996463 332.44914044 790.53125 338.4765625 C792.05270228 340.22860514 792.05270228 340.22860514 793.7734375 341.8046875 C795.07421875 343.203125 795.07421875 343.203125 795.07421875 345.203125 C795.95013672 345.56083984 795.95013672 345.56083984 796.84375 345.92578125 C799.54392779 347.47211774 800.87598423 349.16979885 802.76171875 351.640625 C803.45910156 352.5378125 804.15648437 353.435 804.875 354.359375 C805.60074219 355.2978125 806.32648438 356.23625 807.07421875 357.203125 C811.54936391 362.81519892 816.10300378 368.27658962 821.01171875 373.515625 C825.28003043 378.14128371 828.89191563 383.00445707 832.47119141 388.16040039 C834.77513376 391.45670617 837.13316349 394.5090722 839.88671875 397.453125 C849.25393116 407.63078033 856.74817306 419.694612 864.67895508 431 C867.58594481 435.13421367 870.55248222 439.21604309 873.5715332 443.26904297 C877.44222109 448.46714255 881.09665571 453.56130599 884.08203125 459.3359375 C885.07387074 461.20247009 886.18262561 462.90507006 887.38671875 464.640625 C889.07421875 467.203125 889.07421875 467.203125 889.07421875 469.203125 C889.73421875 469.203125 890.39421875 469.203125 891.07421875 469.203125 C892.35180664 470.87695312 892.35180664 470.87695312 893.796875 473.234375 C894.33094971 474.09998047 894.86502441 474.96558594 895.4152832 475.85742188 C895.98335693 476.79650391 896.55143066 477.73558594 897.13671875 478.703125 C898.01299927 480.13495117 898.01299927 480.13495117 898.90698242 481.59570312 C902.72999699 487.87895917 906.41236278 494.22800067 909.97094727 500.6640625 C912.23333984 504.74814213 914.60231626 508.74031079 917.07421875 512.703125 C923.45740134 522.97447636 929.32154776 533.4856441 934.6262207 544.35205078 C936.89310279 548.9517926 939.2843711 553.4759988 941.734375 557.98046875 C942.22729034 558.88918228 942.22729034 558.88918228 942.73016357 559.81625366 C944.06230667 562.27078118 945.39448928 564.7250972 946.74371338 567.17028809 C950.73951567 574.41187316 954.14269713 581.5968367 956.9987793 589.36010742 C958.31375113 592.83634964 959.88933521 595.98586036 961.63671875 599.265625 C971.72737785 618.87209637 979.49035646 639.56722302 986.99414062 660.26611328 C988.4750545 664.29310105 990.05049333 668.27926303 991.63671875 672.265625 C994.56980419 679.70120761 997.25164387 687.21975272 999.88671875 694.765625 C1000.46498413 696.40833374 1000.46498413 696.40833374 1001.05493164 698.08422852 C1002.59519572 702.53907787 1004.09317119 706.91756796 1005.0234375 711.54296875 C1005.95991111 716.13570729 1007.46986941 720.48295087 1008.98309326 724.91397095 C1011.95471798 733.69245714 1014.4727136 742.60433643 1017.01171875 751.515625 C1017.2753421 752.43898651 1017.53896545 753.36234802 1017.81057739 754.31369019 C1022.04477759 769.18355914 1025.92547467 784.06073606 1029.07421875 799.203125 C1029.28062988 800.1828125 1029.48704102 801.1625 1029.69970703 802.171875 C1031.23499612 809.5011805 1032.67466059 816.84679571 1034.07421875 824.203125 C1034.30608887 825.41758301 1034.53795898 826.63204102 1034.77685547 827.88330078 C1045.53198419 884.60457083 1053.15634976 941.91414731 1053.27734375 999.734375 C1053.28017113 1000.67611069 1053.2829985 1001.61784637 1053.28591156 1002.58811951 C1053.30076858 1007.59260315 1053.31007737 1012.59705907 1053.31445312 1017.6015625 C1053.31879127 1021.62639665 1053.33252006 1025.6510108 1053.35546875 1029.67578125 C1053.55672669 1065.76006811 1052.10775459 1101.6683973 1047.76171875 1137.515625 C1047.65783844 1138.397948 1047.55395813 1139.280271 1047.44692993 1140.18933105 C1043.82372935 1170.92880726 1038.73083672 1201.27598352 1032.43310547 1231.57594299 C1031.51922331 1235.98652973 1030.64895127 1240.40070782 1029.83984375 1244.83203125 C1024.51568381 1273.78379454 1015.9702481 1302.18194474 1007.02050781 1330.19335938 C1005.90472371 1333.74222066 1004.86148116 1337.30872015 1003.82836914 1340.88232422 C997.67325668 1362.09171631 989.65026136 1382.68794062 981.31982422 1403.12207031 C980.06235755 1406.23246416 978.83200794 1409.35232552 977.609375 1412.4765625 C964.06529174 1446.99886043 964.06529174 1446.99886043 957.53759766 1457.72900391 C956.18377674 1460.01789633 955.23078843 1462.16074491 954.3125 1464.6484375 C951.95327284 1470.69710629 949.09376424 1476.46538306 946.17553711 1482.26123047 C945.26793777 1484.06576007 944.36892631 1485.87438226 943.47070312 1487.68359375 C940.08053559 1494.44914074 936.48603103 1501.02441865 932.62573242 1507.53222656 C930.61683609 1510.99049972 928.85762296 1514.5332264 927.13671875 1518.140625 C924.16287903 1524.21911002 920.87305479 1529.96695535 917.25390625 1535.69140625 C914.67684761 1539.79213597 912.29205444 1544.00023501 909.88671875 1548.203125 C905.69160573 1555.49164937 901.39926546 1562.71621997 897.01171875 1569.890625 C896.45137939 1570.81810547 895.89104004 1571.74558594 895.3137207 1572.70117188 C894.7899585 1573.55130859 894.26619629 1574.40144531 893.7265625 1575.27734375 C893.26241943 1576.03619873 892.79827637 1576.79505371 892.32006836 1577.5769043 C891.7033728 1578.38188354 891.7033728 1578.38188354 891.07421875 1579.203125 C890.41421875 1579.203125 889.75421875 1579.203125 889.07421875 1579.203125 C888.85121094 1579.84765625 888.62820313 1580.4921875 888.3984375 1581.15625 C886.58863517 1585.32039697 884.26287117 1589.09043379 881.88671875 1592.953125 C881.38986572 1593.76297852 880.8930127 1594.57283203 880.38110352 1595.40722656 C877.44442715 1600.13989076 874.40268053 1604.64345026 870.87109375 1608.95703125 C868.55339322 1611.85415691 866.40811223 1614.86612412 864.26171875 1617.890625 C863.83681152 1618.4877832 863.4119043 1619.08494141 862.97412109 1619.70019531 C860.84089947 1622.70226952 858.71677346 1625.71061475 856.59765625 1628.72265625 C851.05681223 1636.57310178 845.26162719 1644.17393513 839.27587891 1651.68994141 C837.69343902 1653.68261966 836.13230682 1655.69136929 834.57421875 1657.703125 C834.03796875 1658.39148437 833.50171875 1659.07984375 832.94921875 1659.7890625 C831.90486914 1661.13366263 830.86187909 1662.47933245 829.82421875 1663.82910156 C820.3783003 1676.11282079 820.3783003 1676.11282079 814.88671875 1681.30078125 C811.4053686 1684.95469833 808.47593512 1689.08930496 805.43359375 1693.109375 C800.85003017 1699.11961068 795.92340254 1704.5301689 790.453125 1709.75 C787.17348157 1712.93468716 784.26290385 1716.17202471 781.51171875 1719.828125 C778.70347867 1723.53700332 775.69380687 1726.26220965 772.07421875 1729.203125 C770.3105873 1731.12556686 768.62456128 1733.10333101 766.93359375 1735.08984375 C764.3929996 1737.97736778 761.65207417 1740.63738778 758.91015625 1743.33203125 C756.88903596 1745.33498055 756.88903596 1745.33498055 754.57421875 1748.265625 C752.03263874 1751.25198151 749.35275078 1753.67940097 746.3828125 1756.22265625 C737.48915813 1763.81253259 737.48915813 1763.81253259 729.51171875 1772.328125 C725.5934591 1776.98869283 720.87117718 1780.49357998 716.07421875 1784.203125 C712.8161773 1786.83557294 709.7603671 1789.31113214 707.19921875 1792.640625 C704.65322347 1795.71079578 701.79417267 1797.86020165 698.625 1800.26171875 C692.06513974 1805.25444547 685.77727282 1810.50490767 679.76171875 1816.140625 C675.13606004 1820.40893668 670.27288668 1824.02082188 665.11694336 1827.60009766 C661.82063758 1829.90404001 658.76827155 1832.26206974 655.82421875 1835.015625 C648.82565129 1841.45689913 640.82828219 1846.72373624 633.07421875 1852.203125 C632.32978516 1852.73019043 631.58535156 1853.25725586 630.81835938 1853.80029297 C627.94841696 1855.83157443 625.07753366 1857.86142539 622.20043945 1859.88256836 C618.88962368 1862.20845027 615.58984636 1864.54603051 612.3203125 1866.9296875 C606.10422857 1871.45346534 599.8287964 1875.58464807 593.125 1879.3671875 C589.69272955 1881.43270237 586.49072542 1883.71288323 583.26171875 1886.078125 C576.72025038 1890.85436354 569.92505868 1895.03013393 562.93457031 1899.11181641 C560.54566606 1900.5131815 558.17390413 1901.9419422 555.80273438 1903.37304688 C553.29797921 1904.88354808 550.78702748 1906.38361773 548.27636719 1907.88427734 C546.69236468 1908.83292274 545.10985996 1909.78407071 543.52832031 1910.73681641 C533.29343405 1916.89863568 523.08110928 1922.90172884 512.328125 1928.11328125 C507.0167782 1930.69381226 501.80194016 1933.45828468 496.57421875 1936.203125 C473.6648291 1948.1991712 473.6648291 1948.1991712 462.84228516 1952.96191406 C459.37312892 1954.5174962 455.93150658 1956.1303297 452.48828125 1957.7421875 C436.72562999 1965.09714826 421.01865514 1972.00194272 404.62109375 1977.83984375 C397.63786861 1980.32648646 390.76805942 1983.07455267 383.88671875 1985.828125 C365.91225967 1992.96680233 347.63306012 1998.80614235 329.07421875 2004.203125 C328.18290253 2004.46315308 327.2915863 2004.72318115 326.3732605 2004.99108887 C274.99430151 2019.97936332 274.99430151 2019.97936332 254.07421875 2024.203125 C252.97416504 2024.42838867 251.87411133 2024.65365234 250.74072266 2024.88574219 C242.31784646 2026.59764244 233.87702062 2028.20460827 225.42553711 2029.76763916 C222.92193605 2030.23132916 220.41897939 2030.69841025 217.91601562 2031.16552734 C180.47604087 2038.13231957 143.19000976 2043.20277265 105.2421875 2046.40625 C104.07842842 2046.5058905 104.07842842 2046.5058905 102.89115906 2046.60754395 C100.28646197 2046.82196973 97.6810303 2047.01603724 95.07421875 2047.203125 C93.86593414 2047.29088699 92.65764954 2047.37864899 91.41275024 2047.46907043 C79.79827451 2048.26057423 68.21218947 2048.36669575 56.57421875 2048.37109375 C54.52522765 2048.374322 52.47623676 2048.37768712 50.42724609 2048.38117981 C46.14778105 2048.38712773 41.86833606 2048.38902452 37.58886719 2048.38842773 C33.27437096 2048.38834697 28.95998202 2048.39521716 24.64550781 2048.40893555 C-0.62252688 2048.4879985 -25.73190943 2048.26214195 -50.92578125 2046.203125 C-51.8771698 2046.12742279 -52.82855835 2046.05172058 -53.80877686 2045.97372437 C-59.16864899 2045.53888278 -64.51635216 2045.02420639 -69.86328125 2044.453125 C-70.64454376 2044.37175293 -71.42580627 2044.29038086 -72.23074341 2044.20654297 C-91.48213842 2042.19032453 -110.63222023 2039.44756968 -129.76550293 2036.53192139 C-131.69907443 2036.23762999 -133.63319394 2035.94694441 -135.56738281 2035.65673828 C-149.38271997 2033.56639925 -163.03293229 2030.7946098 -176.68261719 2027.82910156 C-182.79045219 2026.50257851 -188.89226578 2025.17931106 -195.04296875 2024.0625 C-223.09416989 2018.94833825 -250.78233634 2010.82476453 -277.82421875 2001.8515625 C-282.40070779 2000.34191547 -287.01126213 1999.09292007 -291.67578125 1997.890625 C-303.5083998 1994.76854758 -314.83856786 1990.07538295 -326.22607422 1985.640625 C-329.76868786 1984.26416274 -333.31652035 1982.90240902 -336.8671875 1981.546875 C-342.25318921 1979.49013691 -347.63297781 1977.41797899 -353.00830078 1975.33349609 C-354.86245177 1974.61510956 -356.7174969 1973.89902327 -358.57373047 1973.18603516 C-391.99991223 1960.32780614 -391.99991223 1960.32780614 -404.39550781 1952.67919922 C-407.1574492 1951.06797791 -409.87344795 1950.02566441 -412.8828125 1948.94921875 C-420.08655734 1946.23754293 -426.81370461 1942.85676013 -433.61328125 1939.265625 C-434.75861328 1938.67072266 -435.90394531 1938.07582031 -437.08398438 1937.46289062 C-443.07128001 1934.33060046 -448.91406611 1931.05252391 -454.68041992 1927.53198242 C-457.94325141 1925.60096233 -461.31964045 1923.961359 -464.73828125 1922.328125 C-470.69224906 1919.41077786 -476.32094212 1916.21222305 -481.92578125 1912.66015625 C-487.44886277 1909.2111997 -493.14602836 1906.05421865 -498.80078125 1902.828125 C-507.85950959 1897.64029293 -516.66399646 1892.264493 -525.25341797 1886.33837891 C-528.20703916 1884.33336598 -531.22586781 1882.43062744 -534.23828125 1880.515625 C-539.91060895 1876.8905351 -545.44221858 1873.10680807 -550.92578125 1869.203125 C-552.17919567 1868.3209154 -553.433147 1867.43946835 -554.6875 1866.55859375 C-590.93019861 1841.09075148 -590.93019861 1841.09075148 -603.92578125 1829.765625 C-606.79412827 1827.20847328 -606.79412827 1827.20847328 -609.67578125 1825.390625 C-618.17097635 1819.67270522 -625.67802308 1812.7020287 -633.1015625 1805.68359375 C-635.90759849 1803.21909464 -638.82005409 1801.26821086 -641.92578125 1799.203125 C-643.8344276 1797.55377654 -645.70842762 1795.8637078 -647.55078125 1794.140625 C-648.60018391 1793.16528226 -649.64966541 1792.19002434 -650.69921875 1791.21484375 C-651.2312793 1790.71774902 -651.76333984 1790.2206543 -652.31152344 1789.70849609 C-654.92002102 1787.2759498 -657.5476567 1784.86442293 -660.17578125 1782.453125 C-661.0884375 1781.61265625 -662.00109375 1780.7721875 -662.94140625 1779.90625 C-665.17563646 1777.86177633 -667.45840575 1775.88155298 -669.75390625 1773.90625 C-674.95479362 1769.37056376 -679.73774777 1764.44012084 -684.5703125 1759.51953125 C-688.61767452 1755.42777404 -692.7388463 1751.52590421 -697.13891602 1747.81396484 C-699.68601657 1745.51778101 -701.8427532 1742.94504714 -704.05078125 1740.328125 C-706.9259749 1737.0695722 -710.06691209 1734.09125672 -713.203125 1731.0859375 C-714.92578125 1729.203125 -714.92578125 1729.203125 -714.92578125 1727.203125 C-715.79783203 1726.83574219 -715.79783203 1726.83574219 -716.6875 1726.4609375 C-719.30184411 1724.99179473 -720.79142737 1723.35408046 -722.73828125 1721.078125 C-723.43179687 1720.27632812 -724.1253125 1719.47453125 -724.83984375 1718.6484375 C-725.52820313 1717.84148437 -726.2165625 1717.03453125 -726.92578125 1716.203125 C-731.48897335 1710.90103387 -731.48897335 1710.90103387 -736.30078125 1705.828125 C-741.47889908 1700.65000717 -746.51608253 1695.27702555 -750.80078125 1689.328125 C-753.37927429 1685.7683721 -756.29696926 1682.58998444 -759.30078125 1679.390625 C-763.62762944 1674.76534832 -767.44578891 1669.96849447 -771.1015625 1664.78515625 C-774.50845426 1659.96298183 -778.15040826 1655.32256252 -781.94140625 1650.796875 C-787.6065059 1644.03136031 -792.69678804 1636.97974412 -797.7421875 1629.74609375 C-800.97853681 1625.10883169 -804.29108857 1620.52909444 -807.61328125 1615.953125 C-830.92578125 1583.74248811 -830.92578125 1583.74248811 -830.92578125 1579.203125 C-831.58578125 1579.203125 -832.24578125 1579.203125 -832.92578125 1579.203125 C-834.1081543 1577.68798828 -834.1081543 1577.68798828 -835.4375 1575.5234375 C-835.94063721 1574.70939453 -836.44377441 1573.89535156 -836.9621582 1573.05664062 C-837.77946411 1571.70602539 -837.77946411 1571.70602539 -838.61328125 1570.328125 C-839.46635864 1568.9349707 -839.46635864 1568.9349707 -840.33666992 1567.51367188 C-845.59593036 1558.86831225 -850.64838799 1550.10458909 -855.67285156 1541.32128906 C-858.81015804 1535.84124197 -861.98695622 1530.4140426 -865.36328125 1525.078125 C-868.85170748 1519.49066715 -871.76894688 1513.6811675 -874.66015625 1507.7734375 C-877.3171428 1502.36543312 -880.12589762 1497.03812682 -882.92578125 1491.703125 C-886.48127324 1484.90817236 -890.03215942 1478.11178602 -893.48828125 1471.265625 C-893.79830078 1470.65847656 -894.10832031 1470.05132813 -894.42773438 1469.42578125 C-895.94295236 1466.40209459 -897.26724766 1463.36958627 -898.421875 1460.1953125 C-899.81053343 1456.38849666 -901.55016503 1452.86188068 -903.42578125 1449.265625 C-912.36873498 1431.68598309 -919.73662318 1413.51107057 -926.44921875 1394.98046875 C-928.89979767 1388.22142563 -931.50040446 1381.52569833 -934.11328125 1374.828125 C-939.99871334 1359.63119187 -945.15537308 1344.30639006 -949.52319336 1328.60644531 C-951.25034058 1322.43525217 -953.14221347 1316.33101979 -955.09521484 1310.2277832 C-963.19069387 1284.82264153 -969.56875375 1258.99714306 -974.27490234 1232.75146484 C-975.00779705 1228.75600661 -975.78588876 1224.77074589 -976.5703125 1220.78515625 C-988.96417523 1157.54781515 -995.53894788 1094.04808979 -995.31689453 1029.58203125 C-995.29978099 1024.57377368 -995.31001728 1019.56599411 -995.3272171 1014.55775261 C-995.42749117 980.02612213 -993.79212257 945.63024278 -989.67578125 911.328125 C-989.57351227 910.45363708 -989.47124329 909.57914917 -989.36587524 908.67816162 C-985.56578394 876.30876531 -980.30771251 844.29906457 -973.25460815 812.4823761 C-972.16821455 807.50990235 -971.25687669 802.52158203 -970.40625 797.50390625 C-969.11615168 789.95123747 -967.43404427 782.55435647 -965.48828125 775.140625 C-965.32370422 774.50658752 -965.1591272 773.87255005 -964.98956299 773.21929932 C-961.19339118 758.62953785 -956.82391086 744.21052545 -952.43049622 729.79167175 C-952.17886215 728.9658107 -951.92722809 728.13994965 -951.66796875 727.2890625 C-951.29807076 726.07558891 -951.29807076 726.07558891 -950.92070007 724.83760071 C-949.38269869 719.77107903 -947.93570029 714.6882796 -946.56396484 709.57397461 C-942.66132509 695.07568284 -937.06817096 681.14193517 -931.67431641 667.14874268 C-930.51159365 664.12655472 -929.35979272 661.1002176 -928.20703125 658.07421875 C-925.80267196 651.77495291 -923.37310795 645.48581445 -920.92578125 639.203125 C-920.55437012 638.24857422 -920.18295898 637.29402344 -919.80029297 636.31054688 C-913.08822833 619.11666879 -913.08822833 619.11666879 -909.2109375 611.76953125 C-907.09251339 607.539122 -905.26967933 603.17628605 -903.42358398 598.82128906 C-902.23868902 596.05710178 -901.05184174 593.40616048 -899.46362305 590.84814453 C-897.83114053 588.04034716 -896.76507506 585.30229775 -895.671875 582.24609375 C-892.96019918 575.04234891 -889.57941638 568.31520164 -885.98828125 561.515625 C-885.39337891 560.37029297 -884.79847656 559.22496094 -884.18554688 558.04492188 C-881.04383623 552.03961924 -877.75475278 546.17965726 -874.22387695 540.39575195 C-872.44253809 537.38687395 -870.97636478 534.30592497 -869.48828125 531.140625 C-864.78193303 521.42297641 -859.07956785 512.29608562 -853.4765625 503.078125 C-850.76867266 498.62122783 -848.15409148 494.1319193 -845.61328125 489.578125 C-842.17606038 483.4923097 -838.35903592 477.72303298 -834.44140625 471.94140625 C-831.97532153 468.29832654 -829.60029723 464.60171354 -827.23828125 460.890625 C-823.61281358 455.21852235 -819.82947884 449.68670806 -815.92578125 444.203125 C-815.04357165 442.94971058 -814.1621246 441.69575925 -813.28125 440.44140625 C-802.49571534 425.09276077 -791.62369093 409.87252943 -779.92578125 395.203125 C-778.67280552 393.60128152 -777.42242065 391.99740467 -776.17578125 390.390625 C-775.63179687 389.69195312 -775.0878125 388.99328125 -774.52734375 388.2734375 C-773.43165661 386.85706144 -772.34344537 385.43487907 -771.26171875 384.0078125 C-767.45774038 379.02269017 -763.40444678 374.36659837 -759.1796875 369.734375 C-754.84082395 364.86161316 -750.8703123 359.68496068 -746.84765625 354.55078125 C-741.93198514 348.38851009 -736.70269829 342.8554037 -731.015625 337.41796875 C-728.50967338 334.92475438 -726.35456354 332.25332536 -724.18359375 329.46484375 C-719.80747284 323.90907738 -714.92089097 319.00996146 -709.86328125 314.078125 C-702.86713296 307.25570653 -702.86713296 307.25570653 -696.3046875 300.0234375 C-693.44081917 296.67416775 -690.33293043 293.85235463 -686.97900391 291.00292969 C-683.33226223 287.80628526 -680.00132539 284.2941269 -676.61328125 280.828125 C-671.0566361 275.19865357 -665.49341837 269.89538036 -659.22265625 265.0625 C-656.77475858 263.15448588 -656.77475858 263.15448588 -654.25390625 260.46875 C-651.92578125 258.203125 -651.92578125 258.203125 -649.92578125 258.203125 C-649.58353516 257.34267578 -649.58353516 257.34267578 -649.234375 256.46484375 C-647.57178528 253.59129317 -645.59476722 252.06865341 -642.98828125 250.015625 C-641.50521484 248.83226562 -641.50521484 248.83226562 -639.9921875 247.625 C-638.47431641 246.42617188 -638.47431641 246.42617188 -636.92578125 245.203125 C-631.30319483 240.69243856 -625.8105429 236.1351044 -620.55078125 231.203125 C-616.14802213 227.1400073 -611.57239376 223.76518591 -606.6105957 220.44824219 C-603.4291757 218.30312608 -600.53888369 216.07286662 -597.73828125 213.453125 C-591.43284352 207.64245702 -584.30784811 202.87419771 -577.32958984 197.91748047 C-574.22354251 195.70230025 -571.1387633 193.45854223 -568.0534668 191.21459961 C-556.28698284 182.66677887 -544.39685921 174.32070575 -532.11279297 166.53051758 C-528.70229962 164.36449656 -525.35705749 162.12769421 -522.03295898 159.82983398 C-513.09965237 153.6967633 -503.70114291 148.39347972 -494.26318359 143.08764648 C-488.44583464 139.81062995 -482.68884191 136.47670396 -477.0234375 132.9453125 C-472.5884987 130.19224514 -468.19741913 127.69811695 -463.48828125 125.453125 C-456.85517797 122.23227485 -450.38356327 118.76141553 -443.92578125 115.203125 C-431.64276291 108.45657476 -419.35852758 102.150982 -406.42578125 96.73828125 C-402.85094368 95.17030004 -399.39154829 93.4311037 -395.92578125 91.640625 C-388.03291214 87.59933879 -379.92926683 84.04943906 -371.80078125 80.515625 C-371.17010742 80.23967499 -370.53943359 79.96372498 -369.88964844 79.67941284 C-362.20587468 76.32313107 -354.47163601 73.25767686 -346.55175781 70.49194336 C-342.62781194 69.09721469 -338.74225918 67.62152425 -334.859375 66.1171875 C-334.17227951 65.85127304 -333.48518402 65.58535858 -332.77726746 65.31138611 C-331.3642058 64.76425544 -329.95121743 64.21693548 -328.53829956 63.66943359 C-311.18359988 56.95654391 -293.7524336 50.78411606 -275.86328125 45.640625 C-271.93627351 44.50719322 -268.02406142 43.32881832 -264.11328125 42.140625 C-240.91514962 35.09504261 -217.7896302 28.51425845 -193.95117188 23.98535156 C-189.11659816 23.05501115 -184.29538695 22.0598762 -179.47265625 21.0703125 C-132.6447138 11.48388673 -85.59649469 4.81415524 -37.92578125 1.203125 C-36.78156708 1.11466309 -35.63735291 1.02620117 -34.45846558 0.93505859 C-22.97043878 0.12792688 -11.51318869 0.02166375 0 0 Z M-47.98828125 162.390625 C-49.65467651 162.55144562 -49.65467651 162.55144562 -51.35473633 162.71551514 C-70.41613074 164.56804568 -89.32994877 167.04928784 -108.23002625 170.128479 C-113.02231487 170.90851394 -117.82030575 171.63415634 -122.62481689 172.33485413 C-131.20695479 173.59017553 -139.7018984 175.02170337 -148.17578125 176.890625 C-149.34069092 177.14481201 -150.50560059 177.39899902 -151.70581055 177.66088867 C-175.63234453 182.95728767 -199.22211094 189.2597636 -222.70361328 196.25146484 C-225.38590527 197.04367383 -228.07165479 197.81518613 -230.765625 198.56640625 C-249.04575669 203.68561616 -266.77292784 210.60201372 -284.33984375 217.75268555 C-288.99634979 219.64711469 -293.65339164 221.48431721 -298.390625 223.16796875 C-304.41670461 225.33389365 -310.26077257 227.85923423 -316.11328125 230.453125 C-317.20318359 230.93402588 -318.29308594 231.41492676 -319.41601562 231.91040039 C-326.86316021 235.22164926 -334.18593801 238.7080944 -341.42578125 242.44921875 C-343.97716817 243.72775974 -346.50649223 244.91701829 -349.1171875 246.05859375 C-354.78920649 248.55099015 -360.32216519 251.30931056 -365.86328125 254.078125 C-366.88357422 254.58214844 -367.90386719 255.08617187 -368.95507812 255.60546875 C-374.67031447 258.45761605 -380.18551279 261.49166213 -385.6315918 264.82763672 C-388.96177994 266.82426117 -392.40466501 268.56746024 -395.86328125 270.328125 C-408.93400539 277.11970339 -421.25050894 285.24891285 -433.3828125 293.58203125 C-436.14273063 295.34142606 -438.99832731 296.7432806 -441.92578125 298.203125 C-443.38773554 299.14538997 -444.82574959 300.12577136 -446.23828125 301.140625 C-447.51445313 302.04941406 -447.51445313 302.04941406 -448.81640625 302.9765625 C-449.8425 303.71132813 -450.86859375 304.44609375 -451.92578125 305.203125 C-454.77715604 307.22791196 -457.63248992 309.2470737 -460.48828125 311.265625 C-461.23634033 311.79542969 -461.98439941 312.32523438 -462.75512695 312.87109375 C-466.2744994 315.35783129 -469.80099317 317.80888998 -473.42578125 320.140625 C-480.16204697 324.56619492 -486.45309901 329.65537748 -492.82617188 334.58105469 C-494.74738031 336.0652999 -496.67158482 337.5455114 -498.59765625 339.0234375 C-504.01378428 343.17980158 -509.42081162 347.34767998 -514.80078125 351.55078125 C-516.29464104 352.71236708 -517.79528075 353.86526031 -519.30078125 355.01171875 C-523.46701179 358.19806283 -527.26090155 361.43644308 -530.92578125 365.203125 C-533.35383151 367.18454395 -535.81463652 369.11710705 -538.29296875 371.03515625 C-544.79939526 376.17340896 -550.57356978 381.76954925 -556.36767578 387.68603516 C-559.9748999 391.34102491 -563.6273954 394.71553381 -567.67578125 397.890625 C-572.16517733 401.42511261 -575.95497274 405.35595172 -579.72705078 409.61962891 C-582.97130609 413.25573032 -586.40273956 416.53833336 -590.05078125 419.765625 C-594.73067444 423.92817295 -598.64834272 428.39235789 -602.51171875 433.31640625 C-605.3219899 436.67690848 -608.35636942 439.70833569 -611.48828125 442.765625 C-616.76351884 447.93236856 -621.47544727 453.29881878 -625.92578125 459.203125 C-627.15187481 460.80964172 -628.38096443 462.41387701 -629.61328125 464.015625 C-630.13277344 464.70269531 -630.65226563 465.38976562 -631.1875 466.09765625 C-633.28128288 468.63372136 -635.60040553 470.87774928 -637.92578125 473.203125 C-639.82401261 475.31230864 -641.6591066 477.47149279 -643.48828125 479.640625 C-643.95685547 480.18783203 -644.42542969 480.73503906 -644.90820312 481.29882812 C-647.85877349 484.78586583 -650.39464241 488.39458898 -652.92578125 492.203125 C-655.17489379 495.19485884 -657.48734206 498.13598047 -659.80078125 501.078125 C-666.44117645 509.54641393 -672.8973914 518.01319781 -678.80078125 527.015625 C-682.79772787 533.06550936 -686.8907056 538.9940967 -691.19140625 544.83203125 C-695.14865764 550.24205736 -698.71601391 555.71977642 -701.86328125 561.640625 C-703.79535867 565.25951612 -705.84216842 568.62396362 -708.23828125 571.953125 C-715.5405198 582.15383981 -721.49113981 593.10475088 -727.26269531 604.2199707 C-729.74114342 608.98573562 -732.2978586 613.6786049 -734.98828125 618.328125 C-737.96969118 623.49267688 -740.86154522 628.69548083 -743.67578125 633.953125 C-744.0406665 634.62617676 -744.40555176 635.29922852 -744.78149414 635.99267578 C-746.69082763 639.58748685 -748.3574124 643.18690946 -749.8359375 646.98046875 C-752.11204987 652.81754162 -754.85611044 658.39364343 -757.61328125 664.015625 C-764.65684456 678.55522891 -771.35981523 693.17396015 -776.55273438 708.48608398 C-778.73119236 714.84508549 -781.26201935 721.04325341 -783.80078125 727.265625 C-790.51756959 743.86448347 -796.21062002 760.65415494 -800.57177734 778.02514648 C-802.12277338 784.19658141 -803.80340504 790.31587345 -805.57571411 796.42750549 C-810.86514258 814.68027625 -815.21082444 833.04890047 -819.16064453 851.63574219 C-819.77317615 854.49161712 -820.4120088 857.3381021 -821.0703125 860.18359375 C-822.02241536 864.45413697 -822.62238825 868.74004266 -823.17578125 873.078125 C-824.18138994 880.75272284 -825.23815259 888.41795056 -826.34765625 896.078125 C-829.47594588 917.7529678 -832.29746415 939.35540462 -833.92578125 961.203125 C-834.02973421 962.5437865 -834.13373874 963.88444401 -834.23779297 965.22509766 C-837.31879484 1005.72883099 -837.0534799 1046.71027656 -833.92578125 1087.203125 C-833.86497375 1087.99688538 -833.80416626 1088.79064575 -833.74151611 1089.60845947 C-831.72809659 1115.52324221 -828.20417652 1141.12358718 -824.0839386 1166.78105164 C-823.26232496 1171.93343085 -822.53242351 1177.08534765 -821.87890625 1182.26171875 C-821.02816468 1188.81412496 -819.78023245 1195.2035393 -818.30078125 1201.640625 C-818.04208252 1202.78112305 -817.78338379 1203.92162109 -817.5168457 1205.09667969 C-812.08882993 1228.77733724 -805.98492197 1252.20148234 -799.02807617 1275.47851562 C-798.26026076 1278.07293245 -797.50695658 1280.66822113 -796.77075195 1283.27148438 C-794.03409457 1292.88806162 -790.85608189 1302.26243759 -787.32397461 1311.61523438 C-786.48665617 1313.83242816 -785.65764916 1316.05258924 -784.83007812 1318.2734375 C-781.75707271 1326.49300368 -778.56095774 1334.65428111 -775.27612305 1342.79125977 C-774.08395601 1345.80346991 -772.96254434 1348.82640843 -771.87890625 1351.87890625 C-769.7441728 1357.83525273 -767.23878031 1363.60781626 -764.67578125 1369.390625 C-763.95442993 1371.02547852 -763.95442993 1371.02547852 -763.21850586 1372.69335938 C-759.90725699 1380.14050396 -756.42081185 1387.46328176 -752.6796875 1394.703125 C-751.37677266 1397.30315105 -750.16091143 1399.88773877 -748.9921875 1402.546875 C-743.60934786 1414.7913137 -737.49108457 1426.71487127 -730.50146484 1438.11914062 C-728.14848824 1441.98666544 -726.05448426 1445.90958091 -724.0625 1449.9765625 C-721.02155504 1456.13585477 -717.58857894 1461.98209707 -713.98828125 1467.828125 C-713.40626953 1468.7871875 -712.82425781 1469.74625 -712.22460938 1470.734375 C-709.36626163 1475.40649157 -706.42526557 1479.96161749 -703.234375 1484.4140625 C-700.74195355 1487.91107355 -698.78011282 1491.36937644 -696.95019531 1495.24169922 C-694.97608034 1499.02149896 -692.34690433 1502.35718994 -689.80078125 1505.765625 C-685.69446911 1511.34577709 -681.70208777 1516.957127 -677.92578125 1522.765625 C-670.61713297 1533.93328774 -662.26580825 1544.3694576 -653.88671875 1554.74609375 C-651.50914002 1557.72517148 -649.18358705 1560.74185452 -646.86328125 1563.765625 C-646.43869629 1564.31831055 -646.01411133 1564.87099609 -645.57666016 1565.44042969 C-643.68233187 1567.90797394 -641.79237523 1570.37867284 -639.91015625 1572.85546875 C-639.3171875 1573.63019531 -638.72421875 1574.40492187 -638.11328125 1575.203125 C-637.61183594 1575.863125 -637.11039063 1576.523125 -636.59375 1577.203125 C-634.86698657 1579.33580555 -634.86698657 1579.33580555 -632.49609375 1581.625 C-630.00667433 1584.12198605 -627.81413668 1586.70104983 -625.61328125 1589.453125 C-620.03156274 1596.34436483 -614.28118549 1603.01067985 -607.92578125 1609.203125 C-603.64451258 1613.38073099 -599.57615314 1617.65317561 -595.69921875 1622.2109375 C-593.53492695 1624.64219041 -591.23242834 1626.906124 -588.92578125 1629.203125 C-587.53456479 1630.60241188 -586.14337172 1632.00172224 -584.75285339 1633.40170288 C-582.60610976 1635.56202564 -580.4565278 1637.71951588 -578.30688477 1639.87695312 C-577.18227931 1641.0065842 -576.05857343 1642.1371116 -574.93579102 1643.26855469 C-569.27987783 1648.96678143 -563.64301715 1654.60315175 -557.52905273 1659.81591797 C-555.43692731 1661.62609867 -553.5241645 1663.57916496 -551.61328125 1665.578125 C-544.67992493 1672.59501574 -536.86533267 1678.57563001 -528.99609375 1684.5 C-526.92578125 1686.203125 -526.92578125 1686.203125 -524.58984375 1688.5625 C-521.60911222 1691.51700809 -518.46512119 1694.10462495 -515.17578125 1696.703125 C-514.20439209 1697.475354 -514.20439209 1697.475354 -513.21337891 1698.26318359 C-506.86555795 1703.28961523 -500.43566551 1708.20778089 -493.98828125 1713.10546875 C-491.47342782 1715.01692218 -488.97165789 1716.94236986 -486.48828125 1718.89453125 C-480.28725014 1723.75926268 -473.96181038 1728.27192532 -467.37280273 1732.59228516 C-463.62387134 1735.05344529 -459.96711465 1737.5931788 -456.36328125 1740.265625 C-445.88129875 1747.97296508 -434.67695894 1754.63477535 -423.5625 1761.37890625 C-420.51081958 1763.23168935 -417.47277566 1765.10401218 -414.4453125 1766.99609375 C-405.33137916 1772.6725782 -396.07139322 1777.86121186 -386.53515625 1782.79296875 C-382.15260403 1785.06584468 -377.8436615 1787.45338022 -373.55078125 1789.890625 C-368.72893183 1792.62034475 -363.90780104 1795.34880339 -359.05078125 1798.015625 C-358.10460937 1798.53769531 -357.1584375 1799.05976562 -356.18359375 1799.59765625 C-353.6157781 1800.86309058 -351.11735775 1801.94047274 -348.45703125 1802.9765625 C-342.26566667 1805.40594596 -336.27478085 1808.24852193 -330.26449585 1811.08862305 C-326.93028954 1812.66258688 -323.59007789 1814.22370036 -320.25 1815.78515625 C-319.6023317 1816.08801544 -318.95466339 1816.39087463 -318.28736877 1816.70291138 C-308.06695708 1821.47785112 -297.86695115 1825.99967389 -287.18334961 1829.65649414 C-280.58892307 1831.92468297 -274.08558196 1834.41324979 -267.57565308 1836.91235352 C-248.10364911 1844.37649138 -228.54708288 1850.7699718 -208.42382812 1856.2421875 C-204.756744 1857.24956069 -201.09899835 1858.2868443 -197.44140625 1859.328125 C-169.40013089 1867.26288089 -140.84405276 1874.53027216 -111.85009766 1877.83447266 C-108.39860663 1878.26958298 -104.96797515 1878.80035027 -101.53125 1879.33984375 C-42.63223391 1888.57928018 17.53609837 1891.84678809 77.07421875 1888.203125 C77.72795471 1888.16401001 78.38169067 1888.12489502 79.05523682 1888.08459473 C99.07754077 1886.87515077 118.94388119 1884.87370143 138.82421875 1882.203125 C140.22604401 1882.01491684 140.22604401 1882.01491684 141.65618896 1881.82290649 C151.70026438 1880.46289368 161.71127317 1878.97398767 171.70050049 1877.25616455 C176.32496688 1876.46813368 180.94783717 1875.82004584 185.60546875 1875.25 C194.04869869 1874.15866762 202.28133834 1872.34306685 210.57421875 1870.453125 C211.36234955 1870.27538544 212.15048035 1870.09764587 212.9624939 1869.91452026 C235.46936978 1864.83812932 257.60672558 1858.69096835 279.73339844 1852.17822266 C282.39717637 1851.40073588 285.06349933 1850.6407014 287.73828125 1849.90234375 C307.77602373 1844.29095965 327.48966091 1836.88230027 346.71484375 1828.95703125 C349.90092376 1827.6494895 353.11433651 1826.46183006 356.359375 1825.30859375 C362.44477755 1823.11592702 368.34986053 1820.57332008 374.26171875 1817.953125 C375.35162109 1817.47222412 376.44152344 1816.99132324 377.56445312 1816.49584961 C385.01159771 1813.18460074 392.33437551 1809.6981556 399.57421875 1805.95703125 C402.12311933 1804.67973621 404.64961277 1803.49178951 407.2578125 1802.3515625 C412.97509881 1799.83942154 418.55146052 1797.05651199 424.13671875 1794.265625 C425.69229492 1793.49702148 425.69229492 1793.49702148 427.27929688 1792.71289062 C432.43541784 1790.1397345 437.40523649 1787.46826968 442.24731445 1784.3449707 C445.2739431 1782.45327724 448.45824003 1780.88363153 451.63671875 1779.265625 C458.93000389 1775.47546593 465.98989356 1771.34840683 473.01171875 1767.078125 C473.95797119 1766.50457275 474.90422363 1765.93102051 475.87915039 1765.34008789 C481.35821441 1761.98117716 486.6626508 1758.45742751 491.87280273 1754.6940918 C493.93322736 1753.29861512 495.95210238 1752.20047278 498.19921875 1751.140625 C500.95624159 1749.83831786 503.27384048 1748.39615161 505.68359375 1746.52734375 C510.42952855 1742.90891138 515.30407487 1739.49078153 520.19921875 1736.078125 C521.06675781 1735.47097656 521.93429687 1734.86382813 522.828125 1734.23828125 C526.313385 1731.80337358 529.80219222 1729.38382602 533.34375 1727.03125 C545.58349683 1718.83639805 557.22265257 1709.3676945 568.68359375 1700.125 C570.29003068 1698.8335507 571.90480523 1697.55241075 573.52734375 1696.28125 C578.0798782 1692.70221349 582.43943836 1689.00299852 586.69921875 1685.078125 C590.36386405 1681.70171023 594.07143523 1678.62044036 598.1015625 1675.69921875 C603.82907419 1671.35538315 609.06362836 1666.34557304 614.07421875 1661.203125 C617.4090112 1657.78558336 620.74652358 1654.44266949 624.40234375 1651.3671875 C630.3917313 1646.15296212 635.96133891 1640.50201861 641.57348633 1634.88916016 C643.49866577 1632.96616318 645.43170906 1631.05131926 647.36523438 1629.13671875 C653.71341033 1622.81604816 659.75676167 1616.48133275 665.26342773 1609.40209961 C667.40902317 1606.79654776 669.77382068 1604.76150012 672.390625 1602.65234375 C676.85752707 1598.8072842 680.48106319 1594.06698218 683.94921875 1589.328125 C686.20545881 1586.25845103 688.62141774 1583.44560632 691.19921875 1580.640625 C700.81308811 1570.09430677 709.36050174 1558.61015981 717.984375 1547.25390625 C719.86752555 1544.77607658 721.7655538 1542.31278383 723.6953125 1539.87109375 C729.00033012 1533.12311134 733.82650278 1526.18764086 738.5300293 1519.01171875 C741.84855141 1513.96957346 745.32364972 1509.09059767 748.94921875 1504.265625 C752.57100251 1499.42228541 755.65141812 1494.59148345 758.42578125 1489.203125 C760.57951573 1485.2835324 763.00173649 1481.56924699 765.44921875 1477.828125 C765.92931396 1477.09207031 766.40940918 1476.35601563 766.90405273 1475.59765625 C767.85460028 1474.14048314 768.805361 1472.68344907 769.75634766 1471.2265625 C775.46192449 1462.46631411 780.5485469 1453.5574921 785.36132812 1444.28613281 C787.85591289 1439.48664369 790.42695594 1434.75960388 793.13671875 1430.078125 C796.11812868 1424.91357312 799.00998272 1419.71076917 801.82421875 1414.453125 C802.189104 1413.78007324 802.55398926 1413.10702148 802.92993164 1412.41357422 C805.28492456 1407.97969471 807.19242329 1403.47635195 809.015625 1398.80126953 C810.86154594 1394.27075971 813.04977028 1389.90800954 815.19921875 1385.515625 C822.58869258 1370.21189226 829.83774608 1354.85224417 834.953125 1338.62109375 C836.08222399 1335.1787188 837.38290415 1331.86526601 838.76171875 1328.515625 C841.76903184 1321.12622712 844.50196587 1313.64836589 847.19921875 1306.140625 C847.61905029 1304.98151611 848.03888184 1303.82240723 848.47143555 1302.62817383 C850.9277151 1295.74952336 853.10890198 1288.84557954 855.06884766 1281.80981445 C856.11441452 1278.05892585 857.20369127 1274.32195398 858.30078125 1270.5859375 C862.98614416 1254.53214956 867.39255907 1238.42783657 871.44921875 1222.203125 C871.75632782 1220.98088226 871.75632782 1220.98088226 872.06964111 1219.73394775 C874.28567174 1210.89018045 876.37915105 1202.02712678 878.27734375 1193.109375 C878.43882904 1192.3560791 878.60031433 1191.6027832 878.76669312 1190.82666016 C880.26374017 1183.65558569 881.25102776 1176.43029575 882.16015625 1169.1640625 C882.88132786 1163.55665485 883.67716466 1157.96209637 884.48828125 1152.3671875 C887.62122958 1130.68668231 890.52497086 1109.06480557 892.07421875 1087.203125 C892.12535828 1086.48564087 892.1764978 1085.76815674 892.22918701 1085.02893066 C896.98934432 1017.16570084 893.32172762 949.50394931 882.23045349 882.43681335 C881.41206333 877.4463898 880.70278813 872.46017946 880.08203125 867.44140625 C879.03790876 859.37651668 877.36420282 851.50395272 875.57421875 843.578125 C875.40425385 842.81720551 875.23428894 842.05628601 875.05917358 841.27230835 C870.14037751 819.32112768 864.20317555 797.61448415 857.7993927 776.05293274 C856.45054966 771.51054101 855.15998454 766.95480245 853.88671875 762.390625 C848.48337122 743.66526533 841.28857341 725.41528853 834.08203125 707.32421875 C832.70017008 703.85082929 831.41336014 700.35786171 830.171875 696.83203125 C827.93104614 690.62046679 825.18949514 684.67792461 822.38671875 678.703125 C821.59986694 677.01159302 821.59986694 677.01159302 820.79711914 675.28588867 C817.21167728 667.59111722 813.59459249 659.91083183 809.92895508 652.25390625 C808.44431763 649.14534614 807.00886795 646.04679565 805.6796875 642.8671875 C803.55984223 637.85826139 800.97477314 633.07857147 798.44921875 628.265625 C797.91941406 627.25234131 797.38960937 626.23905762 796.84375 625.19506836 C793.34775284 618.54056413 789.76541072 611.94382406 786.01708984 605.42797852 C784.33507761 602.49650649 782.7465771 599.5531568 781.28515625 596.5078125 C778.49289287 590.8558628 775.06151982 585.59037147 771.69921875 580.265625 C771.05210938 579.23244141 770.405 578.19925781 769.73828125 577.13476562 C766.85744771 572.5492453 763.95085988 567.99301165 760.91015625 563.51171875 C758.97544295 560.6432735 757.23770519 557.7453994 755.59765625 554.69921875 C753.0048254 549.93052067 749.92466671 545.62304935 746.69921875 541.265625 C745.54770885 539.69044636 744.39666347 538.11492802 743.24609375 536.5390625 C742.69888672 535.79237305 742.15167969 535.04568359 741.58789062 534.27636719 C739.6820671 531.66600374 737.80745957 529.03504462 735.94921875 526.390625 C735.45164062 525.68292969 734.9540625 524.97523438 734.44140625 524.24609375 C733.07421875 522.203125 733.07421875 522.203125 731.8203125 519.9921875 C729.25753827 515.89862866 726.25007184 512.18004447 723.26171875 508.390625 C719.27792608 503.31841085 715.32200952 498.23314913 711.46557617 493.06323242 C708.11800719 488.5878634 704.68444557 484.17767035 701.26855469 479.75439453 C700.19079956 478.3545466 699.12034077 476.94908851 698.05078125 475.54296875 C697.46039062 474.77082031 696.87 473.99867188 696.26171875 473.203125 C695.76027344 472.543125 695.25882813 471.883125 694.7421875 471.203125 C693.01542407 469.07044445 693.01542407 469.07044445 690.64453125 466.78125 C688.15511183 464.28426395 685.96257418 461.70520017 683.76171875 458.953125 C678.18000024 452.06188517 672.42962299 445.39557015 666.07421875 439.203125 C661.79295008 435.02551901 657.72459064 430.75307439 653.84765625 426.1953125 C651.68259128 423.76319106 649.39017379 421.49222838 647.07421875 419.203125 C646.021467 418.15171051 644.96941753 417.0995925 643.91796875 416.046875 C643.37011719 415.49902344 642.82226562 414.95117188 642.2578125 414.38671875 C640.58203125 412.7109375 638.90625 411.03515625 637.23046875 409.359375 C636.69035156 408.81990234 636.15023438 408.28042969 635.59375 407.72460938 C634.28045504 406.40962637 632.97360252 405.08821505 631.66796875 403.765625 C628.20162882 400.3410482 624.63907314 397.02462218 621.07421875 393.703125 C616.67059774 389.60012018 612.32358325 385.4666777 608.07421875 381.203125 C606.27402389 379.50250424 604.46127814 377.8150788 602.63671875 376.140625 C601.27740234 374.88572266 601.27740234 374.88572266 599.890625 373.60546875 C597.07789794 371.20626329 594.17322504 369.21237083 591.07421875 367.203125 C588.14261639 364.86980883 585.38563697 362.51873741 582.75390625 359.8515625 C580.03144742 357.16085247 577.2071431 354.70920772 574.26171875 352.265625 C573.28589844 351.45222656 572.31007813 350.63882813 571.3046875 349.80078125 C568.36648546 347.4066568 565.34724287 345.13283491 562.30737305 342.86987305 C557.97662642 339.63755565 553.68533608 336.35297269 549.38671875 333.078125 C548.46310547 332.37558594 547.53949219 331.67304688 546.58789062 330.94921875 C545.24500977 329.92634766 545.24500977 329.92634766 543.875 328.8828125 C543.07231689 328.27163574 542.26963379 327.66045898 541.44262695 327.03076172 C539.74397233 325.71995577 538.06245607 324.38682485 536.39257812 323.03955078 C534.36533491 321.4337248 532.56797103 320.33041736 530.26171875 319.203125 C525.58769834 316.68694401 521.47165509 313.59970481 517.26171875 310.390625 C508.89828486 304.0222013 500.58275816 297.73196431 491.03125 293.23828125 C488.74325098 292.02806221 486.73304682 290.59664164 484.63671875 289.078125 C477.45264061 283.91317441 469.73624395 279.61004146 462.07421875 275.203125 C461.47955811 274.85830078 460.88489746 274.51347656 460.2722168 274.15820312 C455.99031 271.68687247 451.64114216 269.36925057 447.26171875 267.078125 C439.54276253 263.01677703 431.90668663 258.81730243 424.29296875 254.5625 C423.59945313 254.17642578 422.9059375 253.79035156 422.19140625 253.39257812 C420.75295088 252.58444222 419.32080892 251.76498613 417.89453125 250.93554688 C413.33822445 248.31766885 408.79585355 246.22885207 403.89550781 244.34228516 C398.63819506 242.21952457 393.53765617 239.73926436 388.41293335 237.31762695 C385.07872704 235.74366312 381.73851539 234.18254964 378.3984375 232.62109375 C377.7507692 232.31823456 377.10310089 232.01537537 376.43580627 231.70333862 C366.21539458 226.92839888 356.01538865 222.40657611 345.33178711 218.74975586 C338.73736057 216.48156703 332.23401946 213.99300021 325.72409058 211.49389648 C305.11141127 203.59250738 284.38177252 196.96877019 263.07421875 191.203125 C261.89649902 190.8819873 260.7187793 190.56084961 259.50537109 190.22998047 C219.9653758 179.03731649 219.9653758 179.03731649 179.55859375 172.10766602 C172.78343021 171.35871587 166.07791484 170.25627166 159.35183716 169.1578064 C117.32501796 162.32443953 74.71270221 158.99275452 32.14379883 159.07275391 C28.77485625 159.07810414 25.40604791 159.07277337 22.03710938 159.06640625 C-1.41537995 159.05626784 -24.6481776 160.09667404 -47.98828125 162.390625 Z " fill="#141414" transform="translate(994.92578125,-0.203125)"/>
<path d="M0 0 C8.1713719 6.87808691 13.26744571 14.85259597 18.59863281 23.9934082 C19.01371094 24.68305664 19.42878906 25.37270508 19.85644531 26.08325195 C25.58846634 36.39637639 27.72533355 49.45155214 27.72168064 61.08607388 C27.72283449 61.76781189 27.72398833 62.4495499 27.72517714 63.15194663 C27.72781715 65.42891365 27.7233433 67.70580948 27.71888733 69.98277283 C27.71932357 71.63460973 27.72019944 73.28644656 27.7214765 74.93828303 C27.72371114 79.47170439 27.71971424 84.0051021 27.71469843 88.53852046 C27.71037936 93.42937699 27.7118414 98.32023219 27.71260071 103.21109009 C27.71312502 111.68296054 27.70998791 120.1548233 27.70436287 128.62669182 C27.6962353 140.87558713 27.69363136 153.12447872 27.69237488 165.37337644 C27.69018634 185.24647833 27.68353161 205.11957612 27.67407227 224.99267578 C27.66489303 244.29736307 27.6578147 263.60204925 27.65356445 282.90673828 C27.65330173 284.09671045 27.65303901 285.28668262 27.65276832 286.51271456 C27.65146328 292.48246454 27.65019957 298.45221453 27.64895642 304.42196453 C27.63858997 353.94578192 27.62097703 403.46959486 27.59863281 452.9934082 C28.43894515 452.99226904 29.27925749 452.99112988 30.14503384 452.9899562 C79.98151064 452.92277879 129.81798262 452.8713267 179.65449566 452.84021221 C185.6423852 452.83646023 191.63027465 452.83257725 197.61816406 452.82861328 C199.40623748 452.82743288 199.40623748 452.82743288 201.23043358 452.82622864 C220.51575377 452.81318527 239.80104704 452.78953731 259.08635128 452.76194981 C278.88424411 452.73386589 298.68212289 452.71722563 318.48003483 452.71114272 C330.69010495 452.70703248 342.90009899 452.6940644 355.11014569 452.6696588 C363.49028128 452.65376474 371.87037771 452.64901615 380.25052726 452.65290407 C385.08079712 452.6548199 389.91093432 452.65194447 394.74118042 452.63579178 C399.17323374 452.62107977 403.60506651 452.62052831 408.03713048 452.63071152 C409.63094878 452.63196813 411.22478144 452.6282589 412.81857193 452.61875866 C435.77355451 452.4900114 458.21411496 458.16716699 475.47363281 474.2434082 C492.12050074 492.85129461 500.85098036 513.94638425 499.97363281 538.9152832 C498.70695509 560.02130069 488.02894648 579.83249516 472.47363281 593.9934082 C471.2000628 595.016356 469.90862782 596.01754148 468.59863281 596.9934082 C467.96183594 597.4884082 467.32503906 597.9834082 466.66894531 598.4934082 C462.08502932 601.81458507 457.16182647 604.32019438 452.03613281 606.6809082 C451.44251953 606.96643555 450.84890625 607.25196289 450.23730469 607.54614258 C436.67675974 613.52173875 421.76142899 613.42916425 407.24913025 613.37435913 C405.23310661 613.37782246 403.21708487 613.38259154 401.20106703 613.38854086 C395.70215549 613.40098755 390.20340147 613.39490948 384.70448959 613.38558221 C378.75826923 613.37876601 372.81207506 613.38928562 366.86585999 613.39752197 C355.90473382 613.41006592 344.94366133 613.40901456 333.98253235 613.40078757 C323.85496805 613.39322404 313.72742197 613.39127864 303.59985542 613.3948555 C302.9265949 613.39508465 302.25333438 613.39531381 301.55967202 613.39554991 C298.82631137 613.39648401 296.09295073 613.39743922 293.3595901 613.3984292 C267.74924337 613.40759419 242.1389283 613.39930471 216.52858646 613.38313851 C193.80151138 613.3689014 171.07448675 613.37017833 148.34741211 613.38452148 C122.78070587 613.40060303 97.21402758 613.40694569 71.64731699 613.39768469 C68.91940948 613.39672262 66.19150196 613.39578409 63.46359444 613.3948555 C62.45616131 613.39449965 62.45616131 613.39449965 61.428376 613.39413661 C51.30929292 613.39073164 41.1902301 613.39470108 31.07114983 613.40229416 C19.56010517 613.41072114 8.04912186 613.40840372 -3.4619158 613.39245193 C-9.33111688 613.38458564 -15.2002158 613.38144966 -21.06941605 613.39139938 C-26.44881327 613.40038065 -31.82801423 613.39535706 -37.20739382 613.37946673 C-39.14660238 613.37613345 -41.08582774 613.37778 -43.02502538 613.38509409 C-64.54204573 613.4599839 -82.58863572 609.92488901 -100.40136719 596.9934082 C-101.16578125 596.46489258 -101.93019531 595.93637695 -102.71777344 595.3918457 C-118.85579174 583.93905852 -128.29293671 564.3379641 -131.78022778 545.35019469 C-133.07912238 537.20261721 -132.81693049 528.92777865 -132.78904724 520.70169067 C-132.79322716 518.67970544 -132.79870827 516.65772256 -132.80536705 514.63574398 C-132.81975383 509.11563616 -132.81559818 503.59567851 -132.80820024 498.07556272 C-132.80345408 492.10815122 -132.81599118 486.14077153 -132.82621765 480.17337036 C-132.84239188 469.17074862 -132.84485707 458.16816948 -132.83991266 447.16553927 C-132.83534609 436.99802714 -132.83596635 426.83053266 -132.84175301 416.66302109 C-132.84250989 415.29636819 -132.84326587 413.92971529 -132.84402095 412.56306239 C-132.84516621 410.50335382 -132.84631609 408.44364526 -132.84748019 406.3839367 C-132.85817654 387.24863795 -132.86291932 368.11334505 -132.85501003 348.97804451 C-132.85471286 348.25756194 -132.85441569 347.53707936 -132.85410951 346.79476398 C-132.85166086 340.9448586 -132.84904913 335.09495329 -132.84642537 329.24504799 C-132.83632428 306.43083411 -132.84467925 283.61669385 -132.86791992 260.80249023 C-132.89402222 235.13798518 -132.90683261 209.47352443 -132.89973217 183.80900562 C-132.89901617 181.0698127 -132.89834177 178.33061978 -132.89769173 175.59142685 C-132.89743701 174.57982679 -132.89743701 174.57982679 -132.89717715 173.54779037 C-132.89487933 163.39129087 -132.90282636 153.23483267 -132.9159832 143.07834244 C-132.93092825 131.52120823 -132.93131978 119.96416879 -132.91391229 108.40703596 C-132.90541322 102.51528591 -132.90322623 96.62371973 -132.91856384 90.73197937 C-132.93245307 85.32956694 -132.9275933 79.92749518 -132.90832461 74.52510224 C-132.9045773 72.57977074 -132.90744956 70.63441166 -132.91793626 68.68910481 C-132.99202628 53.88226827 -131.93881128 38.88496144 -124.65136719 25.6184082 C-124.13485596 24.63892212 -124.13485596 24.63892212 -123.60791016 23.63964844 C-113.54713745 5.03019278 -96.96485721 -9.71380239 -76.63964844 -16.11206055 C-75.57101562 -16.40725586 -74.50238281 -16.70245117 -73.40136719 -17.0065918 C-72.54929687 -17.25022461 -71.69722656 -17.49385742 -70.81933594 -17.74487305 C-45.25231948 -23.6635367 -19.98693246 -16.24831026 0 0 Z " fill="#141414" transform="translate(1076.4013671875,491.006591796875)"/>
</svg>
